# xmcd
#
# Track frame offsets:
#	150
#	20632
#	40135
#	57505
#	76325
#	91770
#	112407
#	127535
#	142512
#	161897
#
# Disc length: 2405 seconds
#
# Revision: 4
# Processed by: cddbd v1.5.2PL0 Copyright (c) Steve Scherf et al.
# Submitted via: audiograbber 1.83.01
#
DISCID=7909630a
DTITLE=Dolly Parton - Rainbow
DYEAR=1987
DGENRE=Country Rock
TTITLE0=The River Unbroken
TTITLE1=I Know You By Heart (Duet With Smokey Robinson)
TTITLE2=Dumb The Dude
TTITLE3=Red Hot Screaming Love
TTITLE4=Make Love Work
TTITLE5=Everyday Hero
TTITLE6=Two Lovers
TTITLE7=Could I Have Your Autograph
TTITLE8=Savin' It For You
TTITLE9=More Than I Can Say
EXTD=
EXTT0=
EXTT1=
EXTT2=
EXTT3=
EXTT4=
EXTT5=
EXTT6=
EXTT7=
EXTT8=
EXTT9=
PLAYORDER=
